<svg width="19" height="20" viewBox="0 0 19 20" fill="none" xmlns="http://www.w3.org/2000/svg">
<path d="M5.92188 15.292L8.37604 17.292C8.69271 17.6253 9.40521 17.792 9.88021 17.792H12.8885C13.8385 17.792 14.8677 17.042 15.1052 16.042L17.0052 9.95862C17.401 8.79196 16.6885 7.79196 15.501 7.79196H12.3344C11.8594 7.79196 11.4635 7.37529 11.5427 6.79195L11.9385 4.12529C12.0969 3.37529 11.6219 2.54196 10.9094 2.29196C10.276 2.04196 9.48437 2.37529 9.16771 2.87529L5.92188 7.95862" stroke="#0B0F0E" stroke-width="1.5" stroke-miterlimit="10"/>
<path d="M1.88379 15.292V7.1253C1.88379 5.95863 2.35879 5.54196 3.46712 5.54196H4.25879C5.36712 5.54196 5.84212 5.95863 5.84212 7.1253V15.292C5.84212 16.4586 5.36712 16.8753 4.25879 16.8753H3.46712C2.35879 16.8753 1.88379 16.4586 1.88379 15.292Z" stroke="#0B0F0E" stroke-width="1.5" stroke-linecap="round" stroke-linejoin="round"/>
</svg>
