<svg width="84" height="84" viewBox="0 0 84 84" fill="none" xmlns="http://www.w3.org/2000/svg">
<path d="M84 42.0002C84 65.1962 65.196 84.0002 42 84.0002C18.804 84.0002 0 65.1962 0 42.0002C0 18.8043 18.804 0.000244141 42 0.000244141C65.196 0.000244141 84 18.8043 84 42.0002ZM4.2 42.0002C4.2 62.8766 21.1236 79.8002 42 79.8002C62.8764 79.8002 79.8 62.8766 79.8 42.0002C79.8 21.1239 62.8764 4.20024 42 4.20024C21.1236 4.20024 4.2 21.1239 4.2 42.0002Z" fill="#E4E9EE"/>
<path d="M84 42.0002C84 51.7172 80.6308 61.1335 74.4664 68.6448C68.3021 76.156 59.724 81.2975 50.1938 83.1932C40.6636 85.0889 30.7709 83.6215 22.2013 79.0409C13.6318 74.4604 6.91557 67.0502 3.19706 58.073C-0.521445 49.0957 -1.01217 39.1068 1.8085 29.8083C4.62918 20.5098 10.5867 12.477 18.666 7.07852C26.7454 1.68009 36.4466 -0.749939 46.1167 0.202485C55.7868 1.15491 64.8276 5.43085 71.6985 12.3018L68.7286 15.2716C62.5448 9.08779 54.4082 5.23944 45.705 4.38226C37.0019 3.52508 28.2708 5.71211 20.9994 10.5707C13.7281 15.4293 8.36626 22.6588 5.82765 31.0275C3.28905 39.3961 3.7307 48.3861 7.07736 56.4657C10.424 64.5452 16.4686 71.2144 24.1812 75.3369C31.8938 79.4593 40.7972 80.78 49.3744 79.0739C57.9516 77.3678 65.6719 72.7405 71.2198 65.9803C76.7677 59.2202 79.8 50.7455 79.8 42.0002H84Z" fill="#FFA439"/>
<path d="M37.76 48.0002V45.4602H39.68V42.7602H37.76V34.6002H34.28L27.2 43.3602V45.4602H34.76V48.0002H37.76ZM30.98 42.7602V42.5602L34.58 38.2402H34.76V42.7602H30.98ZM44.2469 48.0002V44.4602H40.4869V48.0002H44.2469ZM51.0241 48.2002C54.6641 48.2002 56.7641 46.9202 56.7641 44.3002C56.7641 42.3402 55.4641 41.3802 54.1641 41.0002V40.8802C55.4241 40.6602 56.3241 39.6002 56.3241 38.0202C56.3241 35.9002 54.6641 34.4002 51.0441 34.4002C47.4241 34.4002 45.7641 35.9002 45.7641 38.0202C45.7641 39.6002 46.6641 40.6602 47.9241 40.8802V41.0002C46.6041 41.3802 45.3241 42.3402 45.3241 44.3002C45.3241 46.9202 47.4041 48.2002 51.0241 48.2002ZM51.0441 40.0802C49.3041 40.0802 48.7441 39.6202 48.7441 38.6002C48.7441 37.5802 49.3041 37.1202 51.0441 37.1202C52.7641 37.1202 53.3241 37.5802 53.3241 38.6002C53.3241 39.6202 52.7641 40.0802 51.0441 40.0802ZM51.0441 45.5002C48.8641 45.5002 48.3641 44.9602 48.3641 43.8002C48.3641 42.6402 48.8641 42.1202 51.0441 42.1202C53.2041 42.1202 53.7241 42.6402 53.7241 43.8002C53.7241 44.9602 53.2041 45.5002 51.0441 45.5002Z" fill="#0B0F0E"/>
</svg>
